<svg xmlns="http://www.w3.org/2000/svg" xmlns:xlink="http://www.w3.org/1999/xlink" version="1.1" x="0px" y="0px" viewBox="0 0 100 125" enable-background="new 0 0 100 100" xml:space="preserve"><path d="M74.6,38.1c6.7,0.3,12.4,6.2,14.3,10.4c1.4,3.2,8.7,23.9,9,27.9c0.3,4.1-27.2,1.5-27.2,1.5s-0.3-15.9-0.1-24  C70.8,43.6,74.6,38.1,74.6,38.1z"/><path d="M26.1,38.1c-6.7,0.3-12.4,6.2-14.3,10.4c-1.4,3.2-8.7,23.9-9,27.9S30.1,78,30.1,78s0.3-15.9,0.1-24  C29.9,43.6,26.1,38.1,26.1,38.1z"/><g><path d="M44.2,49.2l1.8-3.3c-0.2-0.1-0.5-0.1-0.7-0.1c-0.3,0-0.7,0.1-1,0.3c-0.4-0.5-1-0.8-1.5-0.8c-0.1,0-0.1,0-0.2,0   c-0.3-0.3-0.6-0.6-1-0.7c-0.3-0.4-0.6-0.8-1-1c-0.2-0.6-0.6-1-1-1.3c-0.3-1.2-1-2.1-1.8-2.4c-0.4-1.2-1.3-1.9-2.2-1.9   c-1.4,0-2.2,1.4-2.4,2.8c-0.4,1.8,0.4,2.8,1.8,2.2c0.2,0.6,0.6,1.2,1,1.5c0.3,1,0.8,1.8,1.5,2.2c0.4,0.8,0.9,1.5,1.6,1.7   c0.5,0.8,1.1,1.3,1.9,1.3c0.1,0,0.1,0,0.2,0C42.4,51,44,49.4,44.2,49.2z"/><path d="M40.7,31c0,0.2,0,0.5,0,0.7c0,3,2.5,5.5,5.5,5.5c1.2,0,2.3-0.4,3.2-1C46.5,32.6,43.2,31.3,40.7,31z"/><path d="M60.7,31.7c0-0.2,0-0.5,0-0.7c-2.5,0.3-5.8,1.5-8.7,5.2c0.9,0.7,2,1,3.2,1C58.3,37.2,60.7,34.8,60.7,31.7z"/><path d="M55.6,45.4c0.2-0.1,0.4-0.1,0.6-0.1c0.3,0,0.7,0.1,1,0.3c0.4-0.5,1-0.8,1.5-0.8c0.1,0,0.1,0,0.2,0c0.3-0.3,0.6-0.6,1-0.7   c0.3-0.4,0.6-0.8,1-1c0.2-0.5,0.5-1,0.9-1.3l1.1-9.6c0.1-0.6-0.3-1.1-0.9-1.2c0,0-0.1,0-0.1,0c-0.1,3.9-3.1,7-6.8,7   c-1.4,0-2.8-0.5-3.9-1.3c-0.2,0.3-0.4,0.6-0.6,0.9c-0.2-0.3-0.4-0.6-0.6-0.8C49,37.5,47.7,38,46.3,38c-3.7,0-6.7-3.1-6.8-7   c-0.1,0-0.1,0-0.2,0c-0.6,0.1-1,0.6-0.9,1.2l1,8.2c0.2,0.4,0.4,0.8,0.6,1.3c0.4,0.3,0.7,0.8,1,1.3c0.4,0.2,0.7,0.6,1,1   c0.4,0.1,0.7,0.4,1,0.7c0.1,0,0.1,0,0.2,0c0.6,0,1.1,0.3,1.5,0.8c0.3-0.2,0.6-0.3,1-0.3c0.2,0,0.5,0.1,0.7,0.1l2.9-5.6   c0.8-1.4,2.7-1.4,3.4,0L55.6,45.4z"/><path d="M70.7,33.9l-2.5-0.4c-0.8-7-5.3-12.8-11.5-15.1v-0.7c0-0.6-0.4-1.1-0.9-1.3c-1.6-0.5-3.4-0.8-5.2-0.8   c-1.8,0-3.5,0.3-5.2,0.8c-0.5,0.2-0.9,0.7-0.9,1.3v0.7c-6.2,2.3-10.7,8.1-11.5,15.1l-2.4,0.4c-1.2,0.2-2,1.3-2,2.5l0.5,5.3   c0.1,1.3,1.1,2.3,2.3,2.3H33c-0.3-0.7-0.4-1.5-0.4-2.3c0-2.5,1.3-4.5,2.8-4.5c1.1,0,2,0.9,2.5,2.3c0.3,0.1,0.5,0.3,0.8,0.5l-1-8.6   c0-0.5,0.3-1,0.8-1.1c2.2-0.3,7.8-0.3,12.1,6.5c4.4-6.8,10-6.8,12.1-6.5c0.5,0.1,0.9,0.5,0.8,1.1l-0.9,8.9c0.3-0.3,0.6-0.5,1-0.7   c0.5-1.4,1.4-2.3,2.5-2.3c1.6,0,2.8,2,2.8,4.5c0,0.8-0.1,1.5-0.4,2.2h1.2c1.2,0,2.2-1,2.3-2.3l0.5-5.3C72.7,35.1,71.9,34,70.7,33.9   z"/><path d="M42.6,52.4c0-0.2,0.1-0.4,0.2-0.6l0.8-1.4c-0.6,0.4-1.9,0.9-2.7-0.1c-0.1,0-0.1,0-0.2,0c-0.7,0-1.4-0.5-1.9-1.3   c-0.7-0.2-1.2-0.8-1.6-1.7c-0.7-0.4-1.2-1.2-1.5-2.2c-0.4-0.3-0.8-0.9-1-1.5c-0.6,0.2-0.9,0.2-1.2-0.2c-0.2,0.5-0.2,1-0.3,1.5   c-0.1,1.9,1.6,2.8,2.1,3c0.4,1,1.1,1.7,1.8,2c0.5,0.8,1.2,1.3,1.8,1.4c0.6,0.7,2.7,1.2,3.4,1.1C42.5,52.4,42.5,52.4,42.6,52.4   C42.6,52.4,42.6,52.4,42.6,52.4z"/><path d="M57.5,49.2l-1.8-3.3c0.2-0.1,0.5-0.1,0.7-0.1c0.3,0,0.7,0.1,1,0.3c0.4-0.5,1-0.8,1.5-0.8c0.1,0,0.1,0,0.2,0   c0.3-0.3,0.6-0.6,1-0.7c0.3-0.4,0.6-0.8,1-1c0.2-0.6,0.6-1,1-1.3c0.3-1.2,1-2.1,1.8-2.4c0.4-1.2,1.3-1.9,2.2-1.9   c1.4,0,2.2,1.4,2.4,2.8c0.4,1.8-0.4,2.8-1.8,2.2c-0.2,0.6-0.6,1.2-1,1.5c-0.3,1-0.8,1.8-1.5,2.2c-0.4,0.8-0.9,1.5-1.6,1.7   c-0.5,0.8-1.1,1.3-1.9,1.3c-0.1,0-0.1,0-0.2,0C59.3,51,57.7,49.4,57.5,49.2z"/><path d="M59.1,52.4c0-0.2-0.1-0.4-0.2-0.6l-0.8-1.4c0.6,0.4,1.9,0.9,2.7-0.1c0.1,0,0.1,0,0.2,0c0.7,0,1.4-0.5,1.9-1.3   c0.7-0.2,1.2-0.8,1.6-1.7c0.7-0.4,1.2-1.2,1.5-2.2c0.4-0.3,0.8-0.9,1-1.5c0.6,0.2,0.9,0.2,1.2-0.2c0.2,0.5,0.2,1,0.3,1.5   c0.1,1.9-1.6,2.8-2.1,3c-0.4,1-1.1,1.7-1.8,2c-0.5,0.8-1.2,1.3-1.8,1.4c-0.6,0.7-2.7,1.2-3.4,1.1C59.2,52.4,59.2,52.4,59.1,52.4   C59.1,52.4,59.1,52.4,59.1,52.4z"/><path d="M58.2,51.7l-5.9-10.9c-0.6-1.2-2.3-1.2-3,0l-5.9,10.9c-0.8,1.6,0.2,3.5,2,3.5h10.8C58,55.2,59.1,53.3,58.2,51.7z    M53.8,53.1h-0.6v-7.9l0.6,1.1V53.1z M51.2,42.1v11h-0.6v-11C50.8,42.1,51,42.1,51.2,42.1z M48,46.2l0.6-1.1v8H48V46.2z M45.6,50.6   l0.3-0.5v2.6C45.4,52.1,45.2,51.3,45.6,50.6z M55.9,52.5v-2.3l0.2,0.4C56.5,51.2,56.4,52,55.9,52.5z"/></g><path d="M56.9,65.9c0.2-0.6,1.1-1.9,1.1-4.1c0-2.2-2.7-5.4-7.1-5.4c-4.4,0-7.1,3.2-7.1,5.4c0,2.2,0.8,3.5,1.1,4.1  c0.4,1.3-0.1,1.9-0.1,1.9s0.2,1.3,0.6,1.9c0.4,0.6,2.5-0.4,2.5,1.8c0,0,0.8,0.6,3,0.6c2.2,0,3-0.6,3-0.6c0-2.2,2.1-1.2,2.5-1.8  c0.4-0.6,0.6-1.9,0.6-1.9S56.5,67.2,56.9,65.9z M48.7,67.6c-0.5,0.3-1.2,0.5-1.7,0.5c-0.5,0-1-0.3-1.1-0.7c-0.1-0.4-0.2-1-0.1-1.5  c0.1-0.5,0.6-1,1.3-1.2c0.6-0.2,1.4-0.2,1.8,0.1c0.4,0.3,0.7,0.9,0.7,1.4C49.5,66.7,49.2,67.4,48.7,67.6z M50.8,69.9  c-0.8,0-0.9-0.3-0.9-0.3s0.1-2.3,0.9-2.3c0.9,0,0.9,2.3,0.9,2.3S51.6,69.9,50.8,69.9z M55.8,67.4c-0.1,0.4-0.6,0.7-1.1,0.7  c-0.5,0-1.2-0.2-1.7-0.5c-0.5-0.3-0.8-0.9-0.8-1.4c0-0.5,0.3-1.2,0.7-1.4c0.4-0.3,1.1-0.3,1.8-0.1c0.6,0.2,1.2,0.7,1.3,1.2  C55.9,66.4,55.9,67,55.8,67.4z"/><path d="M58.9,57.3c0,0.4,0,0.7,0,1c0,0.1,0.1,0.3,0.3,0.4c0.2,0.1,0.5,0.2,0.8,0.4c1.1,0.8,1.9,1.8,1.5,3.4c0,0,0,0.1,0,0.1  c-0.1,0.9-0.6,1.6-1.5,1.8c-0.3,0.1-0.7,0.2-1,0.2c-0.3,0.8-0.6,1.4-0.7,1.8c-0.5,1.4,0,2.2,0.1,2.3c0-0.4,0-0.8,0.1-1.2  c0.1,0.1,0.2,0.3,0.2,0.4c0.2,1.2,0.4,2.4,0.6,3.6c0,0.3,0.2,0.4,0.4,0.5c0.5,0.1,0.9,0.3,1.4,0.5c0.3,0.1,0.6,0.2,1,0.4  c0-0.2-0.1-0.3-0.1-0.5c-0.5-1.5-1-3-1.5-4.6c0-0.1,0-0.2,0-0.3c0.1,0.1,0.2,0.1,0.3,0.2c0.1,0.2,0.2,0.5,0.3,0.7  c0.6,1.5,1.3,3.1,1.9,4.6c0.1,0.3,0.3,0.3,0.5,0.3c0.7,0,1.5,0,2.2,0c0.2,0,0.4,0,0.6,0c-1.3-2.2-2.6-4.4-3.9-6.5  c0,0,0.1-0.1,0.1-0.1c1.7,2,3.5,4.1,5.2,6.1c0.9-0.5,1.8-1.1,2.8-1.6c-0.1-0.1-0.2-0.2-0.3-0.3c-2.1-1.8-4.2-3.6-6.4-5.4  c-0.1-0.1-0.2-0.2-0.2-0.3c0,0,0,0,0.1-0.1c0.1,0.1,0.2,0.1,0.3,0.2c2.5,1.6,5,3.1,7.5,4.7c0.2,0.1,0.3,0.1,0.5,0  c0.8-0.6,1.5-1.2,2.3-1.8c0.1-0.1,0.2-0.1,0.4-0.2c-0.2-0.1-0.2-0.2-0.3-0.2c-3.2-1.4-6.5-2.8-9.7-4.2c-0.1,0-0.2-0.1-0.3-0.2  c-0.1-0.1-0.1-0.2-0.1-0.2c0,0,0.1-0.1,0.2-0.1c0.2,0,0.3,0.1,0.5,0.2c3.4,1.2,6.8,2.5,10.3,3.7c0.2,0.1,0.4,0,0.5-0.1  c0.6-0.5,1.1-1.1,1.7-1.6c0.2-0.2,0.4-0.3,0.6-0.5c-3.3-0.7-6.6-1.4-9.8-2.1c-1.1-0.2-2.2-0.5-3.3-0.7c-0.2,0-0.3-0.1-0.5-0.2  c0,0,0-0.1,0.1-0.1c1.4,0.2,2.8,0.5,4.2,0.7c3,0.5,5.9,1,8.9,1.6c1,0.2,1.7,0,2.3-0.7c0.5-0.6,1.2-1.1,1.8-1.7  c-3-0.3-5.9-0.5-8.7-0.8c-2.9-0.2-5.8-0.5-8.6-0.7c0,0,0-0.1,0-0.1c0.1,0,0.2,0,0.4,0c1.2,0,2.3,0.1,3.5,0.1c2.7,0.1,5.3,0.1,8,0.2  c1.9,0.1,3.8,0.1,5.8,0.2c0.2,0,0.5-0.1,0.7-0.2c0.6-0.5,1.2-1,1.8-1.6c0.2-0.2,0.4-0.4,0.7-0.6C76.2,57.6,67.6,57.4,58.9,57.3z"/><path d="M43.7,69.9c-0.2-0.6-0.2-1.2-0.2-1.2s0.6-0.8,0.1-2.3c-0.1-0.3-0.3-0.7-0.5-1.2c-0.4,0.1-0.9,0.1-1.3,0.1  c-1.6-0.2-2.7-1.7-2.2-3.5c0.4-1.3,1.4-2.3,2.7-2.9c0.1,0,0.2-0.1,0.2-0.2c0-0.3,0-0.6,0-0.9c-8.3,0.1-16.6,0.2-24.9,0.4  c0.6,0.8,1.2,1.4,1.7,2.1c0.3,0.5,0.7,0.6,1.2,0.5c2.7-0.2,5.4-0.3,8.1-0.4c1.9-0.1,3.7-0.2,5.6-0.3c1.2-0.1,2.3-0.1,3.5-0.1  c0,0.3-0.1,0.4-0.4,0.4c-0.3,0-0.7,0.1-1,0.1c-1.8,0.2-3.7,0.3-5.5,0.5c-2.7,0.2-5.4,0.5-8.1,0.7c-0.7,0.1-1.4,0.1-2.2,0.2  c0.8,0.8,1.5,1.6,2.3,2.3C22.8,64,23,64,23.1,64c4.1-0.7,8.1-1.5,12.2-2.3c0.7-0.1,1.4-0.3,2.1-0.4c0,0,0,0.1,0,0.1  c-4.4,1.3-8.9,2.4-13.4,3.7c0.1,0.1,0.2,0.2,0.3,0.3c0.7,0.6,1.3,1.2,2,1.8c0.3,0.3,0.5,0.3,0.9,0.2c2.3-0.9,4.5-1.8,6.8-2.7  c1.1-0.4,2.1-0.8,3.2-1.2c0.1,0.3-0.1,0.4-0.3,0.5c-2.4,1.3-4.7,2.5-7.1,3.8c-0.5,0.3-1,0.6-1.6,0.9c0.9,0.7,1.7,1.4,2.5,2.1  c2.3-1.9,4.7-3.7,7-5.6c0.3,0.2,0.1,0.3,0,0.4c-1.7,1.8-3.4,3.6-5.2,5.3c-0.2,0.2-0.4,0.4-0.6,0.6c0.7,0.4,1.3,0.8,1.9,1.2  c0.3,0.2,0.4,0.2,0.6-0.1c1.4-1.9,2.8-3.7,4.3-5.5c0.1-0.1,0.2-0.2,0.3-0.3c0,0,0.1,0,0.1,0.1c-1.2,2.1-2.5,4.3-3.7,6.4  c0.8,0.1,1.6,0.2,2.4,0.4c0.2,0,0.3,0,0.4-0.2c0.4-1,0.8-1.9,1.3-2.9c0.4-0.9,0.8-1.9,1.2-2.8c0.1-0.2,0.2-0.3,0.5-0.2  c-0.7,2-1.3,3.9-2,6c0.8-0.6,1.5-1,2.2-1.5c0.3-0.2,0.4-0.4,0.5-0.8c0.2-1.1,0.5-2.2,0.7-3.3c0-0.1,0.1-0.3,0.2-0.4  c0,0,0.1,0,0.1,0.1c-0.1,1-0.1,2.1-0.2,3.2C43,70.6,43.3,70.2,43.7,69.9z"/><path d="M32.8,28.9c0.5-2.2,1.3-4.6,3.3-6.8h-9v1.1C29.5,24.4,31.5,26.4,32.8,28.9z"/><path d="M68.8,28.9c-0.5-2.2-1.5-4.7-3.3-6.8h10v1.1C73,24.4,70,26.4,68.8,28.9z"/><path d="M74.9,34.7l-0.1,1.4c5,0.3,9.4,4.1,12.1,7.9c3.1-2,5.2-5.5,5.2-9.5c0-6.2-5-11.2-11.2-11.2c-5.3,0-9.7,3.7-10.9,8.6  c0,0.1,0,0.2,0,0.3l2.7,0.3C74,32.7,75,33.6,74.9,34.7z"/><path d="M21.5,23.5c-6.2,0-11.2,5-11.2,11.2c0,3.5,1.6,6.6,4,8.6c2.7-3.6,7-7.1,11.8-7.3c0,0,0.5,0.8,1.1,2.4c0.1,0,0.2-0.1,0.4-0.1  l-0.2-3.5c-0.1-1.1,0.9-2,2.2-2.2l2.7-0.3c0-0.1,0-0.2,0-0.3C31.2,27.2,26.8,23.5,21.5,23.5z"/><text x="0" y="115" fill="#000000" font-size="5px" font-weight="bold" font-family="'Helvetica Neue', Helvetica, Arial-Unicode, Arial, Sans-serif">Created by Robert Bjurshagen</text><text x="0" y="120" fill="#000000" font-size="5px" font-weight="bold" font-family="'Helvetica Neue', Helvetica, Arial-Unicode, Arial, Sans-serif">from the Noun Project</text></svg>